<svg width="205" height="31" viewBox="0 0 205 31" fill="none" xmlns="http://www.w3.org/2000/svg">
<rect width="205" height="31" fill="#F5F5F5"/>
<g filter="url(#filter0_d_0_1)">
<mask id="path-1-outside-1_0_1" maskUnits="userSpaceOnUse" x="3" y="-1" width="199" height="25" fill="black">
<rect fill="white" x="3" y="-1" width="199" height="25"/>
<path d="M9.1709 0.671875L15.2354 16.9316L21.2998 0.671875H24.6689L16.5684 22H13.9023L5.81641 0.671875H9.1709ZM7.47168 0.671875L8.02832 15.1592V22H4.26367V0.671875H7.47168ZM26.2217 0.671875V22H22.4424V15.1592L23.0137 0.671875H26.2217ZM37.1934 22.293C35.6211 22.293 34.2637 21.9561 33.1211 21.2822C31.9785 20.5986 31.0996 19.6807 30.4844 18.5283C29.8691 17.3662 29.5615 16.0674 29.5615 14.6318V14.0312C29.5615 12.3809 29.874 10.9453 30.499 9.72461C31.124 8.49414 31.9785 7.54199 33.0625 6.86816C34.1562 6.19434 35.3916 5.85742 36.7686 5.85742C38.292 5.85742 39.5566 6.18945 40.5625 6.85352C41.5684 7.50781 42.3203 8.4209 42.8184 9.59277C43.3164 10.7549 43.5654 12.1025 43.5654 13.6357V15.2031H31.3047V12.5811H39.9766V12.3027C39.957 11.6875 39.8398 11.1113 39.625 10.5742C39.4102 10.0371 39.0684 9.60254 38.5996 9.27051C38.1406 8.93848 37.5254 8.77246 36.7539 8.77246C35.9824 8.77246 35.333 8.99219 34.8057 9.43164C34.2783 9.86133 33.8779 10.4717 33.6045 11.2627C33.3311 12.0439 33.1943 12.9668 33.1943 14.0312V14.6318C33.1943 15.5303 33.3604 16.3359 33.6924 17.0488C34.0244 17.7617 34.5078 18.3281 35.1426 18.748C35.7773 19.1582 36.5342 19.3633 37.4131 19.3633C38.2627 19.3633 39.0146 19.1973 39.6689 18.8652C40.333 18.5332 40.9043 18.0547 41.3828 17.4297L43.2871 19.334C42.7891 20.0859 42.0371 20.7695 41.0312 21.3848C40.0352 21.9902 38.7559 22.293 37.1934 22.293ZM45.6162 13.9287C45.6162 12.3857 45.9092 11.0088 46.4951 9.79785C47.0811 8.58691 47.9209 7.62988 49.0146 6.92676C50.1182 6.21387 51.4414 5.85742 52.9844 5.85742C54.5469 5.85742 55.8799 6.21387 56.9834 6.92676C58.0869 7.62988 58.9268 8.58691 59.5029 9.79785C60.0889 11.0088 60.3818 12.3857 60.3818 13.9287V14.2363C60.3818 15.7695 60.0889 17.1465 59.5029 18.3672C58.9268 19.5781 58.0869 20.5352 56.9834 21.2383C55.8896 21.9414 54.5664 22.293 53.0137 22.293C51.4609 22.293 50.1328 21.9414 49.0293 21.2383C47.9258 20.5352 47.0811 19.5781 46.4951 18.3672C45.9092 17.1465 45.6162 15.7695 45.6162 14.2363V13.9287ZM49.249 14.2363C49.249 15.1738 49.3809 16.0332 49.6445 16.8145C49.9082 17.5859 50.3135 18.2061 50.8604 18.6748C51.417 19.1436 52.1348 19.3779 53.0137 19.3779C53.8828 19.3779 54.5908 19.1436 55.1377 18.6748C55.6943 18.2061 56.0996 17.5859 56.3535 16.8145C56.6172 16.0332 56.749 15.1738 56.749 14.2363V13.9287C56.749 13.001 56.6172 12.1465 56.3535 11.3652C56.0996 10.584 55.6943 9.95898 55.1377 9.49023C54.5811 9.01172 53.8633 8.77246 52.9844 8.77246C52.1152 8.77246 51.4023 9.01172 50.8457 9.49023C50.2988 9.95898 49.8936 10.584 49.6299 11.3652C49.376 12.1465 49.249 13.001 49.249 13.9287V14.2363ZM71.2803 6.15039H73.5947L72.9795 10.0176L69.3027 22H67.252L67.6328 18.3818L71.2803 6.15039ZM68.4238 18.4258L68.6143 22H66.3145L62.0371 6.15039H65.582L68.4238 18.4258ZM79.6885 6.15039H83.2188L78.9561 22H76.6562L76.9492 18.2793L79.6885 6.15039ZM77.5938 18.25L78.0186 22H75.9531L72.2324 10.0029L71.6318 6.15039H73.9902L77.5938 18.25ZM102.379 19.2607C102.066 19.6514 101.593 20.0859 100.958 20.5645C100.323 21.0332 99.4736 21.4385 98.4092 21.7803C97.3545 22.1221 96.041 22.293 94.4688 22.293C92.6719 22.293 91.085 21.8926 89.708 21.0918C88.3408 20.291 87.2715 19.124 86.5 17.5908C85.7285 16.0576 85.3428 14.2119 85.3428 12.0537V10.6182C85.3428 8.4502 85.6992 6.60449 86.4121 5.08105C87.125 3.54785 88.1357 2.38086 89.4443 1.58008C90.7627 0.779297 92.3301 0.378906 94.1465 0.378906C95.9043 0.378906 97.3594 0.671875 98.5117 1.25781C99.6738 1.84375 100.567 2.6543 101.192 3.68945C101.817 4.71484 102.208 5.89648 102.364 7.23438H98.6582C98.5508 6.49219 98.3311 5.83789 97.999 5.27148C97.667 4.69531 97.1934 4.24121 96.5781 3.90918C95.9629 3.57715 95.1768 3.41113 94.2197 3.41113C93.0967 3.41113 92.1592 3.69434 91.4072 4.26074C90.6553 4.81738 90.0938 5.63281 89.7227 6.70703C89.3516 7.77148 89.166 9.06543 89.166 10.5889V12.0537C89.166 13.5967 89.3809 14.9053 89.8105 15.9795C90.25 17.0439 90.875 17.8594 91.6855 18.4258C92.4961 18.9824 93.4727 19.2607 94.6152 19.2607C95.4355 19.2607 96.1094 19.1924 96.6367 19.0557C97.1641 18.9189 97.5791 18.7529 97.8818 18.5576C98.1943 18.3623 98.4336 18.1768 98.5996 18.001V13.8701H94.2344V11.0283H102.379V19.2607ZM105.382 13.9287C105.382 12.3857 105.675 11.0088 106.261 9.79785C106.847 8.58691 107.687 7.62988 108.78 6.92676C109.884 6.21387 111.207 5.85742 112.75 5.85742C114.312 5.85742 115.646 6.21387 116.749 6.92676C117.853 7.62988 118.692 8.58691 119.269 9.79785C119.854 11.0088 120.147 12.3857 120.147 13.9287V14.2363C120.147 15.7695 119.854 17.1465 119.269 18.3672C118.692 19.5781 117.853 20.5352 116.749 21.2383C115.655 21.9414 114.332 22.293 112.779 22.293C111.227 22.293 109.898 21.9414 108.795 21.2383C107.691 20.5352 106.847 19.5781 106.261 18.3672C105.675 17.1465 105.382 15.7695 105.382 14.2363V13.9287ZM109.015 14.2363C109.015 15.1738 109.146 16.0332 109.41 16.8145C109.674 17.5859 110.079 18.2061 110.626 18.6748C111.183 19.1436 111.9 19.3779 112.779 19.3779C113.648 19.3779 114.356 19.1436 114.903 18.6748C115.46 18.2061 115.865 17.5859 116.119 16.8145C116.383 16.0332 116.515 15.1738 116.515 14.2363V13.9287C116.515 13.001 116.383 12.1465 116.119 11.3652C115.865 10.584 115.46 9.95898 114.903 9.49023C114.347 9.01172 113.629 8.77246 112.75 8.77246C111.881 8.77246 111.168 9.01172 110.611 9.49023C110.064 9.95898 109.659 10.584 109.396 11.3652C109.142 12.1465 109.015 13.001 109.015 13.9287V14.2363ZM132.599 6.15039H136.231V22H132.804L132.599 18.25V6.15039ZM134.312 14.9102C134.312 16.3359 134.103 17.6055 133.683 18.7188C133.263 19.8223 132.608 20.6963 131.72 21.3408C130.831 21.9756 129.679 22.293 128.263 22.293C126.7 22.293 125.436 21.834 124.469 20.916C123.502 19.998 123.019 18.4893 123.019 16.3896V6.15039H126.651V16.4189C126.651 17.1514 126.764 17.7324 126.988 18.1621C127.223 18.582 127.53 18.8799 127.911 19.0557C128.292 19.2314 128.712 19.3193 129.171 19.3193C130.157 19.3193 130.934 19.1289 131.5 18.748C132.076 18.3574 132.486 17.8301 132.73 17.166C132.975 16.502 133.097 15.7598 133.097 14.9395L134.312 14.9102ZM143.438 22H139.806V6.15039H143.263L143.438 9.25586V22ZM148.214 9.49023C147.989 9.45117 147.75 9.42188 147.496 9.40234C147.252 9.38281 147.008 9.37305 146.764 9.37305C145.963 9.37305 145.294 9.51953 144.757 9.8125C144.229 10.0957 143.829 10.5059 143.556 11.043C143.282 11.5703 143.121 12.1953 143.072 12.918L142.237 12.9326C142.237 11.5947 142.413 10.3936 142.765 9.3291C143.116 8.26465 143.644 7.41992 144.347 6.79492C145.05 6.16992 145.929 5.85742 146.983 5.85742C147.188 5.85742 147.418 5.87695 147.672 5.91602C147.926 5.95508 148.116 5.99902 148.243 6.04785L148.214 9.49023ZM154.073 22H150.426V6.15039H153.854L154.073 9.3877V22ZM152.242 13.5186C152.242 12.0439 152.477 10.7305 152.945 9.57812C153.424 8.42578 154.132 7.51758 155.069 6.85352C156.007 6.18945 157.174 5.85742 158.57 5.85742C160.006 5.85742 161.188 6.29199 162.115 7.16113C163.043 8.03027 163.507 9.45605 163.507 11.4385V22H159.874V11.7754C159.874 11.0332 159.757 10.4473 159.522 10.0176C159.298 9.58789 158.976 9.28516 158.556 9.10938C158.146 8.92383 157.652 8.83105 157.076 8.83105C156.422 8.83105 155.865 8.95312 155.406 9.19727C154.957 9.43164 154.591 9.76367 154.308 10.1934C154.024 10.623 153.814 11.1211 153.678 11.6875C153.551 12.2539 153.487 12.8594 153.487 13.5039L152.242 13.5186ZM161.573 13.0059C161.583 11.707 161.822 10.5156 162.291 9.43164C162.76 8.34766 163.453 7.4834 164.371 6.83887C165.289 6.18457 166.422 5.85742 167.77 5.85742C168.844 5.85742 169.767 6.05762 170.538 6.45801C171.31 6.84863 171.905 7.47852 172.325 8.34766C172.745 9.20703 172.955 10.3496 172.955 11.7754V22H169.308V11.7461C169.308 10.9746 169.19 10.3789 168.956 9.95898C168.731 9.5293 168.409 9.23633 167.989 9.08008C167.579 8.91406 167.091 8.83105 166.524 8.83105C165.987 8.83105 165.514 8.92871 165.104 9.12402C164.703 9.31934 164.366 9.59277 164.093 9.94434C163.829 10.2861 163.624 10.6914 163.478 11.1602C163.341 11.6191 163.272 12.1172 163.272 12.6543L161.573 13.0059ZM183.561 22.293C181.988 22.293 180.631 21.9561 179.488 21.2822C178.346 20.5986 177.467 19.6807 176.852 18.5283C176.236 17.3662 175.929 16.0674 175.929 14.6318V14.0312C175.929 12.3809 176.241 10.9453 176.866 9.72461C177.491 8.49414 178.346 7.54199 179.43 6.86816C180.523 6.19434 181.759 5.85742 183.136 5.85742C184.659 5.85742 185.924 6.18945 186.93 6.85352C187.936 7.50781 188.688 8.4209 189.186 9.59277C189.684 10.7549 189.933 12.1025 189.933 13.6357V15.2031H177.672V12.5811H186.344V12.3027C186.324 11.6875 186.207 11.1113 185.992 10.5742C185.777 10.0371 185.436 9.60254 184.967 9.27051C184.508 8.93848 183.893 8.77246 183.121 8.77246C182.35 8.77246 181.7 8.99219 181.173 9.43164C180.646 9.86133 180.245 10.4717 179.972 11.2627C179.698 12.0439 179.562 12.9668 179.562 14.0312V14.6318C179.562 15.5303 179.728 16.3359 180.06 17.0488C180.392 17.7617 180.875 18.3281 181.51 18.748C182.145 19.1582 182.901 19.3633 183.78 19.3633C184.63 19.3633 185.382 19.1973 186.036 18.8652C186.7 18.5332 187.271 18.0547 187.75 17.4297L189.654 19.334C189.156 20.0859 188.404 20.7695 187.398 21.3848C186.402 21.9902 185.123 22.293 183.561 22.293ZM199.996 8.83105H191.002V6.15039H199.996V8.83105ZM197.184 2.26855V17.5322C197.184 18.0205 197.252 18.3916 197.389 18.6455C197.525 18.8896 197.721 19.0557 197.975 19.1436C198.229 19.2314 198.521 19.2754 198.854 19.2754C199.098 19.2754 199.332 19.2607 199.557 19.2314C199.781 19.2021 199.962 19.1729 200.099 19.1436V21.9414C199.806 22.0391 199.464 22.1221 199.073 22.1904C198.692 22.2588 198.243 22.293 197.726 22.293C196.915 22.293 196.192 22.1465 195.558 21.8535C194.933 21.5605 194.439 21.0869 194.078 20.4326C193.727 19.7686 193.551 18.8896 193.551 17.7959V2.26855H197.184Z"/>
</mask>
<path d="M9.1709 0.671875L15.2354 16.9316L21.2998 0.671875H24.6689L16.5684 22H13.9023L5.81641 0.671875H9.1709ZM7.47168 0.671875L8.02832 15.1592V22H4.26367V0.671875H7.47168ZM26.2217 0.671875V22H22.4424V15.1592L23.0137 0.671875H26.2217ZM37.1934 22.293C35.6211 22.293 34.2637 21.9561 33.1211 21.2822C31.9785 20.5986 31.0996 19.6807 30.4844 18.5283C29.8691 17.3662 29.5615 16.0674 29.5615 14.6318V14.0312C29.5615 12.3809 29.874 10.9453 30.499 9.72461C31.124 8.49414 31.9785 7.54199 33.0625 6.86816C34.1562 6.19434 35.3916 5.85742 36.7686 5.85742C38.292 5.85742 39.5566 6.18945 40.5625 6.85352C41.5684 7.50781 42.3203 8.4209 42.8184 9.59277C43.3164 10.7549 43.5654 12.1025 43.5654 13.6357V15.2031H31.3047V12.5811H39.9766V12.3027C39.957 11.6875 39.8398 11.1113 39.625 10.5742C39.4102 10.0371 39.0684 9.60254 38.5996 9.27051C38.1406 8.93848 37.5254 8.77246 36.7539 8.77246C35.9824 8.77246 35.333 8.99219 34.8057 9.43164C34.2783 9.86133 33.8779 10.4717 33.6045 11.2627C33.3311 12.0439 33.1943 12.9668 33.1943 14.0312V14.6318C33.1943 15.5303 33.3604 16.3359 33.6924 17.0488C34.0244 17.7617 34.5078 18.3281 35.1426 18.748C35.7773 19.1582 36.5342 19.3633 37.4131 19.3633C38.2627 19.3633 39.0146 19.1973 39.6689 18.8652C40.333 18.5332 40.9043 18.0547 41.3828 17.4297L43.2871 19.334C42.7891 20.0859 42.0371 20.7695 41.0312 21.3848C40.0352 21.9902 38.7559 22.293 37.1934 22.293ZM45.6162 13.9287C45.6162 12.3857 45.9092 11.0088 46.4951 9.79785C47.0811 8.58691 47.9209 7.62988 49.0146 6.92676C50.1182 6.21387 51.4414 5.85742 52.9844 5.85742C54.5469 5.85742 55.8799 6.21387 56.9834 6.92676C58.0869 7.62988 58.9268 8.58691 59.5029 9.79785C60.0889 11.0088 60.3818 12.3857 60.3818 13.9287V14.2363C60.3818 15.7695 60.0889 17.1465 59.5029 18.3672C58.9268 19.5781 58.0869 20.5352 56.9834 21.2383C55.8896 21.9414 54.5664 22.293 53.0137 22.293C51.4609 22.293 50.1328 21.9414 49.0293 21.2383C47.9258 20.5352 47.0811 19.5781 46.4951 18.3672C45.9092 17.1465 45.6162 15.7695 45.6162 14.2363V13.9287ZM49.249 14.2363C49.249 15.1738 49.3809 16.0332 49.6445 16.8145C49.9082 17.5859 50.3135 18.2061 50.8604 18.6748C51.417 19.1436 52.1348 19.3779 53.0137 19.3779C53.8828 19.3779 54.5908 19.1436 55.1377 18.6748C55.6943 18.2061 56.0996 17.5859 56.3535 16.8145C56.6172 16.0332 56.749 15.1738 56.749 14.2363V13.9287C56.749 13.001 56.6172 12.1465 56.3535 11.3652C56.0996 10.584 55.6943 9.95898 55.1377 9.49023C54.5811 9.01172 53.8633 8.77246 52.9844 8.77246C52.1152 8.77246 51.4023 9.01172 50.8457 9.49023C50.2988 9.95898 49.8936 10.584 49.6299 11.3652C49.376 12.1465 49.249 13.001 49.249 13.9287V14.2363ZM71.2803 6.15039H73.5947L72.9795 10.0176L69.3027 22H67.252L67.6328 18.3818L71.2803 6.15039ZM68.4238 18.4258L68.6143 22H66.3145L62.0371 6.15039H65.582L68.4238 18.4258ZM79.6885 6.15039H83.2188L78.9561 22H76.6562L76.9492 18.2793L79.6885 6.15039ZM77.5938 18.25L78.0186 22H75.9531L72.2324 10.0029L71.6318 6.15039H73.9902L77.5938 18.25ZM102.379 19.2607C102.066 19.6514 101.593 20.0859 100.958 20.5645C100.323 21.0332 99.4736 21.4385 98.4092 21.7803C97.3545 22.1221 96.041 22.293 94.4688 22.293C92.6719 22.293 91.085 21.8926 89.708 21.0918C88.3408 20.291 87.2715 19.124 86.5 17.5908C85.7285 16.0576 85.3428 14.2119 85.3428 12.0537V10.6182C85.3428 8.4502 85.6992 6.60449 86.4121 5.08105C87.125 3.54785 88.1357 2.38086 89.4443 1.58008C90.7627 0.779297 92.3301 0.378906 94.1465 0.378906C95.9043 0.378906 97.3594 0.671875 98.5117 1.25781C99.6738 1.84375 100.567 2.6543 101.192 3.68945C101.817 4.71484 102.208 5.89648 102.364 7.23438H98.6582C98.5508 6.49219 98.3311 5.83789 97.999 5.27148C97.667 4.69531 97.1934 4.24121 96.5781 3.90918C95.9629 3.57715 95.1768 3.41113 94.2197 3.41113C93.0967 3.41113 92.1592 3.69434 91.4072 4.26074C90.6553 4.81738 90.0938 5.63281 89.7227 6.70703C89.3516 7.77148 89.166 9.06543 89.166 10.5889V12.0537C89.166 13.5967 89.3809 14.9053 89.8105 15.9795C90.25 17.0439 90.875 17.8594 91.6855 18.4258C92.4961 18.9824 93.4727 19.2607 94.6152 19.2607C95.4355 19.2607 96.1094 19.1924 96.6367 19.0557C97.1641 18.9189 97.5791 18.7529 97.8818 18.5576C98.1943 18.3623 98.4336 18.1768 98.5996 18.001V13.8701H94.2344V11.0283H102.379V19.2607ZM105.382 13.9287C105.382 12.3857 105.675 11.0088 106.261 9.79785C106.847 8.58691 107.687 7.62988 108.78 6.92676C109.884 6.21387 111.207 5.85742 112.75 5.85742C114.312 5.85742 115.646 6.21387 116.749 6.92676C117.853 7.62988 118.692 8.58691 119.269 9.79785C119.854 11.0088 120.147 12.3857 120.147 13.9287V14.2363C120.147 15.7695 119.854 17.1465 119.269 18.3672C118.692 19.5781 117.853 20.5352 116.749 21.2383C115.655 21.9414 114.332 22.293 112.779 22.293C111.227 22.293 109.898 21.9414 108.795 21.2383C107.691 20.5352 106.847 19.5781 106.261 18.3672C105.675 17.1465 105.382 15.7695 105.382 14.2363V13.9287ZM109.015 14.2363C109.015 15.1738 109.146 16.0332 109.41 16.8145C109.674 17.5859 110.079 18.2061 110.626 18.6748C111.183 19.1436 111.9 19.3779 112.779 19.3779C113.648 19.3779 114.356 19.1436 114.903 18.6748C115.46 18.2061 115.865 17.5859 116.119 16.8145C116.383 16.0332 116.515 15.1738 116.515 14.2363V13.9287C116.515 13.001 116.383 12.1465 116.119 11.3652C115.865 10.584 115.46 9.95898 114.903 9.49023C114.347 9.01172 113.629 8.77246 112.75 8.77246C111.881 8.77246 111.168 9.01172 110.611 9.49023C110.064 9.95898 109.659 10.584 109.396 11.3652C109.142 12.1465 109.015 13.001 109.015 13.9287V14.2363ZM132.599 6.15039H136.231V22H132.804L132.599 18.25V6.15039ZM134.312 14.9102C134.312 16.3359 134.103 17.6055 133.683 18.7188C133.263 19.8223 132.608 20.6963 131.72 21.3408C130.831 21.9756 129.679 22.293 128.263 22.293C126.7 22.293 125.436 21.834 124.469 20.916C123.502 19.998 123.019 18.4893 123.019 16.3896V6.15039H126.651V16.4189C126.651 17.1514 126.764 17.7324 126.988 18.1621C127.223 18.582 127.53 18.8799 127.911 19.0557C128.292 19.2314 128.712 19.3193 129.171 19.3193C130.157 19.3193 130.934 19.1289 131.5 18.748C132.076 18.3574 132.486 17.8301 132.73 17.166C132.975 16.502 133.097 15.7598 133.097 14.9395L134.312 14.9102ZM143.438 22H139.806V6.15039H143.263L143.438 9.25586V22ZM148.214 9.49023C147.989 9.45117 147.75 9.42188 147.496 9.40234C147.252 9.38281 147.008 9.37305 146.764 9.37305C145.963 9.37305 145.294 9.51953 144.757 9.8125C144.229 10.0957 143.829 10.5059 143.556 11.043C143.282 11.5703 143.121 12.1953 143.072 12.918L142.237 12.9326C142.237 11.5947 142.413 10.3936 142.765 9.3291C143.116 8.26465 143.644 7.41992 144.347 6.79492C145.05 6.16992 145.929 5.85742 146.983 5.85742C147.188 5.85742 147.418 5.87695 147.672 5.91602C147.926 5.95508 148.116 5.99902 148.243 6.04785L148.214 9.49023ZM154.073 22H150.426V6.15039H153.854L154.073 9.3877V22ZM152.242 13.5186C152.242 12.0439 152.477 10.7305 152.945 9.57812C153.424 8.42578 154.132 7.51758 155.069 6.85352C156.007 6.18945 157.174 5.85742 158.57 5.85742C160.006 5.85742 161.188 6.29199 162.115 7.16113C163.043 8.03027 163.507 9.45605 163.507 11.4385V22H159.874V11.7754C159.874 11.0332 159.757 10.4473 159.522 10.0176C159.298 9.58789 158.976 9.28516 158.556 9.10938C158.146 8.92383 157.652 8.83105 157.076 8.83105C156.422 8.83105 155.865 8.95312 155.406 9.19727C154.957 9.43164 154.591 9.76367 154.308 10.1934C154.024 10.623 153.814 11.1211 153.678 11.6875C153.551 12.2539 153.487 12.8594 153.487 13.5039L152.242 13.5186ZM161.573 13.0059C161.583 11.707 161.822 10.5156 162.291 9.43164C162.76 8.34766 163.453 7.4834 164.371 6.83887C165.289 6.18457 166.422 5.85742 167.77 5.85742C168.844 5.85742 169.767 6.05762 170.538 6.45801C171.31 6.84863 171.905 7.47852 172.325 8.34766C172.745 9.20703 172.955 10.3496 172.955 11.7754V22H169.308V11.7461C169.308 10.9746 169.19 10.3789 168.956 9.95898C168.731 9.5293 168.409 9.23633 167.989 9.08008C167.579 8.91406 167.091 8.83105 166.524 8.83105C165.987 8.83105 165.514 8.92871 165.104 9.12402C164.703 9.31934 164.366 9.59277 164.093 9.94434C163.829 10.2861 163.624 10.6914 163.478 11.1602C163.341 11.6191 163.272 12.1172 163.272 12.6543L161.573 13.0059ZM183.561 22.293C181.988 22.293 180.631 21.9561 179.488 21.2822C178.346 20.5986 177.467 19.6807 176.852 18.5283C176.236 17.3662 175.929 16.0674 175.929 14.6318V14.0312C175.929 12.3809 176.241 10.9453 176.866 9.72461C177.491 8.49414 178.346 7.54199 179.43 6.86816C180.523 6.19434 181.759 5.85742 183.136 5.85742C184.659 5.85742 185.924 6.18945 186.93 6.85352C187.936 7.50781 188.688 8.4209 189.186 9.59277C189.684 10.7549 189.933 12.1025 189.933 13.6357V15.2031H177.672V12.5811H186.344V12.3027C186.324 11.6875 186.207 11.1113 185.992 10.5742C185.777 10.0371 185.436 9.60254 184.967 9.27051C184.508 8.93848 183.893 8.77246 183.121 8.77246C182.35 8.77246 181.7 8.99219 181.173 9.43164C180.646 9.86133 180.245 10.4717 179.972 11.2627C179.698 12.0439 179.562 12.9668 179.562 14.0312V14.6318C179.562 15.5303 179.728 16.3359 180.06 17.0488C180.392 17.7617 180.875 18.3281 181.51 18.748C182.145 19.1582 182.901 19.3633 183.78 19.3633C184.63 19.3633 185.382 19.1973 186.036 18.8652C186.7 18.5332 187.271 18.0547 187.75 17.4297L189.654 19.334C189.156 20.0859 188.404 20.7695 187.398 21.3848C186.402 21.9902 185.123 22.293 183.561 22.293ZM199.996 8.83105H191.002V6.15039H199.996V8.83105ZM197.184 2.26855V17.5322C197.184 18.0205 197.252 18.3916 197.389 18.6455C197.525 18.8896 197.721 19.0557 197.975 19.1436C198.229 19.2314 198.521 19.2754 198.854 19.2754C199.098 19.2754 199.332 19.2607 199.557 19.2314C199.781 19.2021 199.962 19.1729 200.099 19.1436V21.9414C199.806 22.0391 199.464 22.1221 199.073 22.1904C198.692 22.2588 198.243 22.293 197.726 22.293C196.915 22.293 196.192 22.1465 195.558 21.8535C194.933 21.5605 194.439 21.0869 194.078 20.4326C193.727 19.7686 193.551 18.8896 193.551 17.7959V2.26855H197.184Z" fill="black"/>
<path d="M9.1709 0.671875L10.1079 0.322417L9.86522 -0.328125H9.1709V0.671875ZM15.2354 16.9316L14.2984 17.2811L15.2354 19.7932L16.1723 17.2811L15.2354 16.9316ZM21.2998 0.671875V-0.328125H20.6055L20.3629 0.322417L21.2998 0.671875ZM24.6689 0.671875L25.6038 1.02694L26.1185 -0.328125H24.6689V0.671875ZM16.5684 22V23H17.2582L17.5032 22.3551L16.5684 22ZM13.9023 22L12.9673 22.3545L13.212 23H13.9023V22ZM5.81641 0.671875V-0.328125H4.36783L4.88135 1.02637L5.81641 0.671875ZM7.47168 0.671875L8.47094 0.633481L8.43399 -0.328125H7.47168V0.671875ZM8.02832 15.1592H9.02832V15.14L9.02758 15.1208L8.02832 15.1592ZM8.02832 22V23H9.02832V22H8.02832ZM4.26367 22H3.26367V23H4.26367V22ZM4.26367 0.671875V-0.328125H3.26367V0.671875H4.26367ZM26.2217 0.671875H27.2217V-0.328125H26.2217V0.671875ZM26.2217 22V23H27.2217V22H26.2217ZM22.4424 22H21.4424V23H22.4424V22ZM22.4424 15.1592L21.4432 15.1198L21.4424 15.1395V15.1592H22.4424ZM23.0137 0.671875V-0.328125H22.0523L22.0144 0.632472L23.0137 0.671875ZM8.23395 1.02133L14.2984 17.2811L16.1723 16.5822L10.1079 0.322417L8.23395 1.02133ZM16.1723 17.2811L22.2368 1.02133L20.3629 0.322417L14.2984 16.5822L16.1723 17.2811ZM21.2998 1.67188H24.6689V-0.328125H21.2998V1.67188ZM23.7341 0.316814L15.6335 21.6449L17.5032 22.3551L25.6038 1.02694L23.7341 0.316814ZM16.5684 21H13.9023V23H16.5684V21ZM14.8374 21.6455L6.75146 0.317376L4.88135 1.02637L12.9673 22.3545L14.8374 21.6455ZM5.81641 1.67188H9.1709V-0.328125H5.81641V1.67188ZM6.47242 0.710269L7.02906 15.1976L9.02758 15.1208L8.47094 0.633481L6.47242 0.710269ZM7.02832 15.1592V22H9.02832V15.1592H7.02832ZM8.02832 21H4.26367V23H8.02832V21ZM5.26367 22V0.671875H3.26367V22H5.26367ZM4.26367 1.67188H7.47168V-0.328125H4.26367V1.67188ZM25.2217 0.671875V22H27.2217V0.671875H25.2217ZM26.2217 21H22.4424V23H26.2217V21ZM23.4424 22V15.1592H21.4424V22H23.4424ZM23.4416 15.1986L24.0129 0.711278L22.0144 0.632472L21.4432 15.1198L23.4416 15.1986ZM23.0137 1.67188H26.2217V-0.328125H23.0137V1.67188ZM33.1211 21.2822L32.6077 22.1404L32.6131 22.1436L33.1211 21.2822ZM30.4844 18.5283L29.6006 18.9962L29.6022 18.9993L30.4844 18.5283ZM30.499 9.72461L31.3891 10.1804L31.3906 10.1775L30.499 9.72461ZM33.0625 6.86816L32.538 6.01676L32.5346 6.01888L33.0625 6.86816ZM40.5625 6.85352L40.0115 7.68807L40.0172 7.69177L40.5625 6.85352ZM42.8184 9.59277L41.898 9.98392L41.8992 9.98669L42.8184 9.59277ZM43.5654 15.2031V16.2031H44.5654V15.2031H43.5654ZM31.3047 15.2031H30.3047V16.2031H31.3047V15.2031ZM31.3047 12.5811V11.5811H30.3047V12.5811H31.3047ZM39.9766 12.5811V13.5811H40.9766V12.5811H39.9766ZM39.9766 12.3027H40.9766V12.2869L40.9761 12.271L39.9766 12.3027ZM38.5996 9.27051L38.0135 10.0808L38.0216 10.0865L38.5996 9.27051ZM34.8057 9.43164L35.4374 10.2069L35.4458 10.1999L34.8057 9.43164ZM33.6045 11.2627L34.5484 11.593L34.5496 11.5894L33.6045 11.2627ZM35.1426 18.748L34.5908 19.5821L34.5999 19.588L35.1426 18.748ZM39.6689 18.8652L39.2217 17.9708L39.2164 17.9735L39.6689 18.8652ZM41.3828 17.4297L42.0899 16.7226L41.2827 15.9154L40.5888 16.8218L41.3828 17.4297ZM43.2871 19.334L44.1208 19.8862L44.5721 19.2048L43.9942 18.6269L43.2871 19.334ZM41.0312 21.3848L41.5507 22.2393L41.553 22.2378L41.0312 21.3848ZM37.1934 21.293C35.7664 21.293 34.5914 20.9884 33.6291 20.4209L32.6131 22.1436C33.936 22.9237 35.4758 23.293 37.1934 23.293V21.293ZM33.6345 20.4241C32.6445 19.8318 31.8945 19.0463 31.3665 18.0573L29.6022 18.9993C30.3047 20.315 31.3125 21.3655 32.6077 22.1404L33.6345 20.4241ZM31.3682 18.0604C30.8361 17.0554 30.5615 15.9196 30.5615 14.6318H28.5615C28.5615 16.2152 28.9022 17.677 29.6006 18.9962L31.3682 18.0604ZM30.5615 14.6318V14.0312H28.5615V14.6318H30.5615ZM30.5615 14.0312C30.5615 12.5074 30.8496 11.2341 31.3891 10.1803L29.6089 9.26887C28.8984 10.6566 28.5615 12.2543 28.5615 14.0312H30.5615ZM31.3906 10.1775C31.9398 9.09616 32.6742 8.28702 33.5904 7.71745L32.5346 6.01888C31.2829 6.79697 30.3082 7.89212 29.6074 9.27174L31.3906 10.1775ZM33.587 7.71956C34.5117 7.14991 35.563 6.85742 36.7686 6.85742V4.85742C35.2202 4.85742 33.8008 5.23876 32.538 6.01677L33.587 7.71956ZM36.7686 6.85742C38.1477 6.85742 39.2075 7.15719 40.0115 7.68805L41.1135 6.01898C39.9058 5.22171 38.4363 4.85742 36.7686 4.85742V6.85742ZM40.0172 7.69177C40.846 8.23086 41.4728 8.98327 41.898 9.98391L43.7387 9.20163C43.1679 7.85853 42.2907 6.78476 41.1078 6.01526L40.0172 7.69177ZM41.8992 9.98669C42.3338 11.0008 42.5654 12.2098 42.5654 13.6357H44.5654C44.5654 11.9952 44.299 10.5089 43.7375 9.19885L41.8992 9.98669ZM42.5654 13.6357V15.2031H44.5654V13.6357H42.5654ZM43.5654 14.2031H31.3047V16.2031H43.5654V14.2031ZM32.3047 15.2031V12.5811H30.3047V15.2031H32.3047ZM31.3047 13.5811H39.9766V11.5811H31.3047V13.5811ZM40.9766 12.5811V12.3027H38.9766V12.5811H40.9766ZM40.9761 12.271C40.9531 11.5468 40.8143 10.8549 40.5535 10.2028L38.6965 10.9456C38.8654 11.3677 38.961 11.8282 38.9771 12.3345L40.9761 12.271ZM40.5535 10.2028C40.2676 9.48818 39.8048 8.8987 39.1776 8.45448L38.0216 10.0865C38.332 10.3064 38.5527 10.586 38.6965 10.9456L40.5535 10.2028ZM39.1857 8.46028C38.5043 7.9673 37.6611 7.77246 36.7539 7.77246V9.77246C37.3897 9.77246 37.777 9.90965 38.0135 10.0807L39.1857 8.46028ZM36.7539 7.77246C35.7793 7.77246 34.8949 8.0556 34.1655 8.66342L35.4458 10.1999C35.7711 9.92878 36.1855 9.77246 36.7539 9.77246V7.77246ZM34.174 8.65641C33.4726 9.22794 32.9796 10.0097 32.6594 10.936L34.5496 11.5894C34.7763 10.9337 35.0841 10.4947 35.4373 10.2069L34.174 8.65641ZM32.6606 10.9323C32.3411 11.8452 32.1943 12.8849 32.1943 14.0312H34.1943C34.1943 13.0487 34.321 12.2427 34.5484 11.593L32.6606 10.9323ZM32.1943 14.0312V14.6318H34.1943V14.0312H32.1943ZM32.1943 14.6318C32.1943 15.6554 32.3841 16.6083 32.7859 17.471L34.5989 16.6266C34.3366 16.0636 34.1943 15.4052 34.1943 14.6318H32.1943ZM32.7859 17.471C33.1932 18.3455 33.7968 19.0568 34.5908 19.5821L35.6943 17.914C35.2189 17.5995 34.8557 17.178 34.5989 16.6266L32.7859 17.471ZM34.5999 19.588C35.4213 20.1187 36.3737 20.3633 37.4131 20.3633V18.3633C36.6947 18.3633 36.1334 18.1977 35.6853 17.9081L34.5999 19.588ZM37.4131 20.3633C38.3951 20.3633 39.3063 20.1706 40.1215 19.757L39.2164 17.9735C38.723 18.2239 38.1303 18.3633 37.4131 18.3633V20.3633ZM40.1162 19.7597C40.9242 19.3556 41.6117 18.7758 42.1768 18.0376L40.5888 16.8218C40.1969 17.3336 39.7418 17.7108 39.2217 17.9708L40.1162 19.7597ZM40.6757 18.1368L42.58 20.0411L43.9942 18.6269L42.0899 16.7226L40.6757 18.1368ZM42.4534 18.7818C42.0569 19.3804 41.4273 19.9703 40.5095 20.5317L41.553 22.2378C42.6469 21.5688 43.5212 20.7914 44.1208 19.8862L42.4534 18.7818ZM40.5118 20.5302C39.7169 21.0134 38.6331 21.293 37.1934 21.293V23.293C38.8786 23.293 40.3534 22.9671 41.5507 22.2393L40.5118 20.5302ZM49.0146 6.92676L49.5554 7.76794L49.5573 7.76673L49.0146 6.92676ZM56.9834 6.92676L56.4408 7.76674L56.446 7.77011L56.9834 6.92676ZM59.5029 9.79785L58.5999 10.2275L58.6028 10.2334L59.5029 9.79785ZM59.5029 18.3672L58.6014 17.9345L58.5999 17.9375L59.5029 18.3672ZM56.9834 21.2383L56.446 20.3949L56.4426 20.3971L56.9834 21.2383ZM46.4951 18.3672L45.5936 18.7999L45.595 18.8027L46.4951 18.3672ZM49.6445 16.8145L48.697 17.1342L48.6983 17.1379L49.6445 16.8145ZM50.8604 18.6748L50.2095 19.4341L50.2162 19.4397L50.8604 18.6748ZM55.1377 18.6748L54.4935 17.9099L54.4869 17.9155L55.1377 18.6748ZM56.3535 16.8145L55.406 16.4947L55.4036 16.5018L56.3535 16.8145ZM56.3535 11.3652L55.4024 11.6743L55.406 11.685L56.3535 11.3652ZM55.1377 9.49023L54.4858 10.2486L54.4936 10.2551L55.1377 9.49023ZM50.8457 9.49023L51.4965 10.2495L51.4976 10.2486L50.8457 9.49023ZM49.6299 11.3652L48.6823 11.0454L48.6788 11.0561L49.6299 11.3652ZM46.6162 13.9287C46.6162 12.5144 46.8841 11.2899 47.3953 10.2334L45.595 9.36229C44.9343 10.7277 44.6162 12.2571 44.6162 13.9287H46.6162ZM47.3953 10.2334C47.9039 9.18216 48.622 8.36796 49.5554 7.76794L48.4739 6.08558C47.2198 6.89181 46.2582 7.99166 45.595 9.36229L47.3953 10.2334ZM49.5573 7.76673C50.4726 7.17543 51.5997 6.85742 52.9844 6.85742V4.85742C51.2831 4.85742 49.7637 5.25231 48.472 6.08679L49.5573 7.76673ZM52.9844 6.85742C54.3913 6.85742 55.5274 7.1767 56.4408 7.76673L57.526 6.08679C56.2323 5.25103 54.7024 4.85742 52.9844 4.85742V6.85742ZM56.446 7.77011C57.3872 8.36977 58.1023 9.1816 58.5999 10.2275L60.4059 9.3682C59.7512 7.99223 58.7867 6.89 57.5208 6.0834L56.446 7.77011ZM58.6028 10.2334C59.114 11.2899 59.3818 12.5144 59.3818 13.9287H61.3818C61.3818 12.2571 61.0638 10.7277 60.4031 9.36229L58.6028 10.2334ZM59.3818 13.9287V14.2363H61.3818V13.9287H59.3818ZM59.3818 14.2363C59.3818 15.6396 59.1144 16.8657 58.6014 17.9345L60.4045 18.7999C61.0633 17.4273 61.3818 15.8994 61.3818 14.2363H59.3818ZM58.5999 17.9375C58.1023 18.9834 57.3872 19.7953 56.446 20.3949L57.5208 22.0816C58.7867 21.275 59.7512 20.1728 60.4059 18.7968L58.5999 17.9375ZM56.4426 20.3971C55.5392 20.9779 54.4124 21.293 53.0137 21.293V23.293C54.7205 23.293 56.2401 22.9049 57.5242 22.0795L56.4426 20.3971ZM53.0137 21.293C51.6153 21.293 50.4817 20.978 49.5667 20.3949L48.4919 22.0816C49.7839 22.9048 51.3066 23.293 53.0137 23.293V21.293ZM49.5667 20.3949C48.6241 19.7944 47.9028 18.9806 47.3953 17.9316L45.595 18.8027C46.2593 20.1757 47.2275 21.2759 48.4919 22.0816L49.5667 20.3949ZM47.3966 17.9345C46.8836 16.8657 46.6162 15.6396 46.6162 14.2363H44.6162C44.6162 15.8994 44.9347 17.4273 45.5936 18.7999L47.3966 17.9345ZM46.6162 14.2363V13.9287H44.6162V14.2363H46.6162ZM48.249 14.2363C48.249 15.2679 48.3942 16.2369 48.697 17.1342L50.592 16.4947C50.3675 15.8295 50.249 15.0798 50.249 14.2363H48.249ZM48.6983 17.1379C49.0119 18.0556 49.5099 18.8343 50.2096 19.4341L51.5111 17.9155C51.1171 17.5778 50.8045 17.1162 50.5908 16.491L48.6983 17.1379ZM50.2162 19.4397C50.9887 20.0902 51.9501 20.3779 53.0137 20.3779V18.3779C52.3195 18.3779 51.8453 18.1969 51.5045 17.9099L50.2162 19.4397ZM53.0137 20.3779C54.07 20.3779 55.0247 20.0887 55.7885 19.4341L54.4869 17.9155C54.1569 18.1984 53.6956 18.3779 53.0137 18.3779V20.3779ZM55.7818 19.4397C56.4964 18.838 56.9984 18.0537 57.3034 17.1271L55.4036 16.5018C55.2008 17.1182 54.8923 17.5741 54.4936 17.9099L55.7818 19.4397ZM57.301 17.1342C57.6039 16.2369 57.749 15.2679 57.749 14.2363H55.749C55.749 15.0798 55.6305 15.8295 55.406 16.4947L57.301 17.1342ZM57.749 14.2363V13.9287H55.749V14.2363H57.749ZM57.749 13.9287C57.749 12.9057 57.6035 11.9417 57.301 11.0455L55.406 11.685C55.6309 12.3512 55.749 13.0963 55.749 13.9287H57.749ZM57.3045 11.0561C57.0006 10.1208 56.4991 9.32935 55.7818 8.72532L54.4936 10.2551C54.8896 10.5886 55.1987 11.0472 55.4025 11.6743L57.3045 11.0561ZM55.7896 8.73192C55.0173 8.068 54.053 7.77246 52.9844 7.77246V9.77246C53.6735 9.77246 54.1448 9.95544 54.4858 10.2486L55.7896 8.73192ZM52.9844 7.77246C51.9223 7.77246 50.9641 8.06974 50.1938 8.73192L51.4976 10.2486C51.8406 9.9537 52.3082 9.77246 52.9844 9.77246V7.77246ZM50.1949 8.73098C49.4926 9.33299 48.9951 10.1188 48.6824 11.0455L50.5774 11.685C50.792 11.0492 51.1051 10.585 51.4965 10.2495L50.1949 8.73098ZM48.6788 11.0561C48.3886 11.9492 48.249 12.9094 48.249 13.9287H50.249C50.249 13.0926 50.3633 12.3438 50.5809 11.6743L48.6788 11.0561ZM48.249 13.9287V14.2363H50.249V13.9287H48.249ZM71.2803 6.15039V5.15039H70.535L70.322 5.86462L71.2803 6.15039ZM73.5947 6.15039L74.5823 6.30751L74.7664 5.15039H73.5947V6.15039ZM72.9795 10.0176L73.9355 10.3109L73.9561 10.2439L73.9671 10.1747L72.9795 10.0176ZM69.3027 22V23H70.0419L70.2587 22.2933L69.3027 22ZM67.252 22L66.2574 21.8953L66.1412 23H67.252V22ZM67.6328 18.3818L66.6745 18.0961L66.648 18.1849L66.6383 18.2772L67.6328 18.3818ZM68.4238 18.4258L69.4224 18.3726L69.4178 18.2853L69.3981 18.2002L68.4238 18.4258ZM68.6143 22V23H69.669L69.6128 21.9468L68.6143 22ZM66.3145 22L65.349 22.2605L65.5485 23H66.3145V22ZM62.0371 6.15039V5.15039H60.7315L61.0716 6.41094L62.0371 6.15039ZM65.582 6.15039L66.5563 5.92485L66.377 5.15039H65.582V6.15039ZM79.6885 6.15039V5.15039H78.8891L78.713 5.93009L79.6885 6.15039ZM83.2188 6.15039L84.1844 6.41011L84.5232 5.15039H83.2188V6.15039ZM78.9561 22V23H79.7226L79.9217 22.2597L78.9561 22ZM76.6562 22L75.6593 21.9215L75.5744 23H76.6562V22ZM76.9492 18.2793L75.9738 18.059L75.9579 18.1291L75.9523 18.2008L76.9492 18.2793ZM77.5938 18.25L78.5874 18.1374L78.5774 18.0494L78.5521 17.9646L77.5938 18.25ZM78.0186 22V23H79.1382L79.0122 21.8874L78.0186 22ZM75.9531 22L74.998 22.2962L75.2163 23H75.9531V22ZM72.2324 10.0029L71.2444 10.157L71.2556 10.2293L71.2773 10.2991L72.2324 10.0029ZM71.6318 6.15039V5.15039H70.4639L70.6438 6.30442L71.6318 6.15039ZM73.9902 6.15039L74.9486 5.86496L74.7358 5.15039H73.9902V6.15039ZM71.2803 7.15039H73.5947V5.15039H71.2803V7.15039ZM72.6071 5.99328L71.9919 9.86046L73.9671 10.1747L74.5823 6.30751L72.6071 5.99328ZM72.0235 9.72423L68.3467 21.7067L70.2587 22.2933L73.9355 10.3109L72.0235 9.72423ZM69.3027 21H67.252V23H69.3027V21ZM68.2465 22.1047L68.6273 18.4865L66.6383 18.2772L66.2574 21.8953L68.2465 22.1047ZM68.5911 18.6676L72.2386 6.43616L70.322 5.86462L66.6745 18.0961L68.5911 18.6676ZM67.4252 18.479L67.6157 22.0532L69.6128 21.9468L69.4224 18.3726L67.4252 18.479ZM68.6143 21H66.3145V23H68.6143V21ZM67.2799 21.7395L63.0026 5.88984L61.0716 6.41094L65.349 22.2605L67.2799 21.7395ZM62.0371 7.15039H65.582V5.15039H62.0371V7.15039ZM64.6078 6.37593L67.4496 18.6513L69.3981 18.2002L66.5563 5.92485L64.6078 6.37593ZM79.6885 7.15039H83.2188V5.15039H79.6885V7.15039ZM82.2531 5.89067L77.9904 21.7403L79.9217 22.2597L84.1844 6.41011L82.2531 5.89067ZM78.9561 21H76.6562V23H78.9561V21ZM77.6532 22.0785L77.9461 18.3578L75.9523 18.2008L75.6593 21.9215L77.6532 22.0785ZM77.9247 18.4996L80.6639 6.37069L78.713 5.93009L75.9738 18.059L77.9247 18.4996ZM76.6001 18.3626L77.0249 22.1126L79.0122 21.8874L78.5874 18.1374L76.6001 18.3626ZM78.0186 21H75.9531V23H78.0186V21ZM76.9082 21.7038L73.1875 9.70671L71.2773 10.2991L74.998 22.2962L76.9082 21.7038ZM73.2205 9.8489L72.6199 5.99636L70.6438 6.30442L71.2444 10.157L73.2205 9.8489ZM71.6318 7.15039H73.9902V5.15039H71.6318V7.15039ZM73.0318 6.43582L76.6354 18.5354L78.5521 17.9646L74.9486 5.86496L73.0318 6.43582ZM102.379 19.2607L103.16 19.8854L103.379 19.6115V19.2607H102.379ZM100.958 20.5645L101.552 21.3689L101.56 21.363L100.958 20.5645ZM98.4092 21.7803L98.1035 20.8282L98.1009 20.829L98.4092 21.7803ZM89.708 21.0918L89.2026 21.9547L89.2053 21.9562L89.708 21.0918ZM86.4121 5.08105L87.3178 5.50489L87.3189 5.50268L86.4121 5.08105ZM89.4443 1.58008L88.9252 0.725386L88.9224 0.727111L89.4443 1.58008ZM98.5117 1.25781L98.0585 2.1492L98.0615 2.15073L98.5117 1.25781ZM101.192 3.68945L100.336 4.20633L100.338 4.20992L101.192 3.68945ZM102.364 7.23438V8.23438H103.488L103.358 7.11838L102.364 7.23438ZM98.6582 7.23438L97.6685 7.37762L97.7925 8.23438H98.6582V7.23438ZM97.999 5.27148L97.1326 5.7708L97.1363 5.7772L97.999 5.27148ZM91.4072 4.26074L92.0022 5.06451L92.0089 5.0595L91.4072 4.26074ZM89.7227 6.70703L90.6669 7.03623L90.6678 7.03355L89.7227 6.70703ZM89.8105 15.9795L88.882 16.3509L88.8862 16.3611L89.8105 15.9795ZM91.6855 18.4258L91.1127 19.2455L91.1194 19.2501L91.6855 18.4258ZM97.8818 18.5576L97.3518 17.7096L97.3457 17.7134L97.3397 17.7173L97.8818 18.5576ZM98.5996 18.001L99.3266 18.6876L99.5996 18.3986V18.001H98.5996ZM98.5996 13.8701H99.5996V12.8701H98.5996V13.8701ZM94.2344 13.8701H93.2344V14.8701H94.2344V13.8701ZM94.2344 11.0283V10.0283H93.2344V11.0283H94.2344ZM102.379 11.0283H103.379V10.0283H102.379V11.0283ZM101.598 18.636C101.359 18.9349 100.958 19.3119 100.356 19.7659L101.56 21.363C102.227 20.86 102.774 20.3678 103.16 19.8854L101.598 18.636ZM100.364 19.76C99.8447 20.1434 99.104 20.5069 98.1035 20.8282L98.7149 22.7324C99.8433 22.3701 100.802 21.923 101.552 21.3689L100.364 19.76ZM98.1009 20.829C97.1778 21.1281 95.9764 21.293 94.4688 21.293V23.293C96.1056 23.293 97.5312 23.116 98.7175 22.7316L98.1009 20.829ZM94.4688 21.293C92.8254 21.293 91.4162 20.9284 90.2107 20.2274L89.2053 21.9562C90.7537 22.8567 92.5183 23.293 94.4688 23.293V21.293ZM90.2134 20.2289C89.0266 19.5338 88.0856 18.5172 87.3933 17.1413L85.6067 18.0403C86.4574 19.7309 87.6551 21.0483 89.2026 21.9547L90.2134 20.2289ZM87.3933 17.1413C86.7077 15.7788 86.3428 14.095 86.3428 12.0537H84.3428C84.3428 14.3288 84.7493 16.3364 85.6067 18.0403L87.3933 17.1413ZM86.3428 12.0537V10.6182H84.3428V12.0537H86.3428ZM86.3428 10.6182C86.3428 8.55592 86.6823 6.86313 87.3178 5.50489L85.5064 4.65722C84.7162 6.34585 84.3428 8.34447 84.3428 10.6182H86.3428ZM87.3189 5.50268C87.9576 4.12903 88.8426 3.12066 89.9663 2.43305L88.9224 0.727111C87.4288 1.64106 86.2924 2.96667 85.5053 4.65943L87.3189 5.50268ZM89.9635 2.43477C91.0995 1.74477 92.4803 1.37891 94.1465 1.37891V-0.621094C92.1799 -0.621094 90.4259 -0.186173 88.9252 0.725391L89.9635 2.43477ZM94.1465 1.37891C95.8006 1.37891 97.0878 1.65562 98.0585 2.1492L98.965 0.366427C97.631 -0.311868 96.008 -0.621094 94.1465 -0.621094V1.37891ZM98.0615 2.15073C99.069 2.65872 99.816 3.34453 100.336 4.20632L102.048 3.17258C101.319 1.96407 100.279 1.02878 98.9619 0.364891L98.0615 2.15073ZM100.338 4.20992C100.88 5.0979 101.229 6.13827 101.371 7.35037L103.358 7.11838C103.187 5.6547 102.755 4.33179 102.046 3.16899L100.338 4.20992ZM102.364 6.23438H98.6582V8.23438H102.364V6.23438ZM99.6479 7.09113C99.5246 6.23909 99.2677 5.45837 98.8617 4.76576L97.1363 5.7772C97.3944 6.21741 97.577 6.74528 97.6685 7.37762L99.6479 7.09113ZM98.8655 4.77219C98.4359 4.02682 97.8228 3.44458 97.0531 3.02916L96.1032 4.7892C96.5639 5.03784 96.8981 5.3638 97.1326 5.77078L98.8655 4.77219ZM97.0531 3.02916C96.248 2.5947 95.2843 2.41113 94.2197 2.41113V4.41113C95.0692 4.41113 95.6777 4.5596 96.1032 4.7892L97.0531 3.02916ZM94.2197 2.41113C92.9228 2.41113 91.7625 2.74119 90.8056 3.46199L92.0089 5.0595C92.5559 4.64749 93.2706 4.41113 94.2197 4.41113V2.41113ZM90.8122 3.457C89.866 4.15746 89.2001 5.15707 88.7775 6.38051L90.6678 7.03355C90.9874 6.10856 91.4445 5.4773 92.0022 5.06448L90.8122 3.457ZM88.7784 6.37784C88.36 7.57801 88.166 8.99011 88.166 10.5889H90.166C90.166 9.14074 90.3431 7.96496 90.6669 7.03622L88.7784 6.37784ZM88.166 10.5889V12.0537H90.166V10.5889H88.166ZM88.166 12.0537C88.166 13.6839 88.3922 15.1263 88.8821 16.3509L90.739 15.6081C90.3695 14.6842 90.166 13.5095 90.166 12.0537H88.166ZM88.8862 16.3611C89.3863 17.5725 90.1212 18.5526 91.1127 19.2455L92.2583 17.6061C91.6288 17.1662 91.1137 16.5154 90.7349 15.5979L88.8862 16.3611ZM91.1194 19.2501C92.1223 19.9389 93.3042 20.2607 94.6152 20.2607V18.2607C93.6411 18.2607 92.8698 18.026 92.2517 17.6014L91.1194 19.2501ZM94.6152 20.2607C95.4821 20.2607 96.2483 20.1894 96.8877 20.0237L96.3858 18.0877C95.9705 18.1953 95.389 18.2607 94.6152 18.2607V20.2607ZM96.8877 20.0237C97.471 19.8724 97.9982 19.6726 98.424 19.3979L97.3397 17.7173C97.16 17.8332 96.8571 17.9655 96.3858 18.0877L96.8877 20.0237ZM98.4118 19.4056C98.7631 19.1861 99.08 18.9487 99.3266 18.6876L97.8726 17.3144C97.7871 17.4048 97.6256 17.5385 97.3518 17.7096L98.4118 19.4056ZM99.5996 18.001V13.8701H97.5996V18.001H99.5996ZM98.5996 12.8701H94.2344V14.8701H98.5996V12.8701ZM95.2344 13.8701V11.0283H93.2344V13.8701H95.2344ZM94.2344 12.0283H102.379V10.0283H94.2344V12.0283ZM101.379 11.0283V19.2607H103.379V11.0283H101.379ZM108.78 6.92676L109.321 7.76794L109.323 7.76673L108.78 6.92676ZM116.749 6.92676L116.206 7.76674L116.212 7.77011L116.749 6.92676ZM119.269 9.79785L118.366 10.2275L118.368 10.2334L119.269 9.79785ZM119.269 18.3672L118.367 17.9345L118.366 17.9375L119.269 18.3672ZM116.749 21.2383L116.212 20.3949L116.208 20.3971L116.749 21.2383ZM106.261 18.3672L105.359 18.7999L105.361 18.8027L106.261 18.3672ZM109.41 16.8145L108.463 17.1342L108.464 17.1379L109.41 16.8145ZM110.626 18.6748L109.975 19.4341L109.982 19.4397L110.626 18.6748ZM114.903 18.6748L114.259 17.9099L114.253 17.9155L114.903 18.6748ZM116.119 16.8145L115.172 16.4947L115.169 16.5018L116.119 16.8145ZM116.119 11.3652L115.168 11.6743L115.172 11.685L116.119 11.3652ZM114.903 9.49023L114.251 10.2486L114.259 10.2551L114.903 9.49023ZM110.611 9.49023L111.262 10.2495L111.263 10.2486L110.611 9.49023ZM109.396 11.3652L108.448 11.0454L108.444 11.0561L109.396 11.3652ZM106.382 13.9287C106.382 12.5144 106.65 11.2899 107.161 10.2334L105.361 9.36229C104.7 10.7277 104.382 12.2571 104.382 13.9287H106.382ZM107.161 10.2334C107.67 9.18216 108.388 8.36796 109.321 7.76794L108.24 6.08558C106.985 6.89181 106.024 7.99166 105.361 9.36229L107.161 10.2334ZM109.323 7.76673C110.238 7.17543 111.365 6.85742 112.75 6.85742V4.85742C111.049 4.85742 109.529 5.25231 108.238 6.08679L109.323 7.76673ZM112.75 6.85742C114.157 6.85742 115.293 7.1767 116.206 7.76673L117.292 6.08679C115.998 5.25103 114.468 4.85742 112.75 4.85742V6.85742ZM116.212 7.77011C117.153 8.36977 117.868 9.1816 118.366 10.2275L120.172 9.3682C119.517 7.99223 118.552 6.89 117.286 6.0834L116.212 7.77011ZM118.368 10.2334C118.88 11.2899 119.147 12.5144 119.147 13.9287H121.147C121.147 12.2571 120.829 10.7277 120.169 9.36229L118.368 10.2334ZM119.147 13.9287V14.2363H121.147V13.9287H119.147ZM119.147 14.2363C119.147 15.6396 118.88 16.8657 118.367 17.9345L120.17 18.7999C120.829 17.4273 121.147 15.8994 121.147 14.2363H119.147ZM118.366 17.9375C117.868 18.9834 117.153 19.7953 116.212 20.3949L117.286 22.0816C118.552 21.275 119.517 20.1728 120.172 18.7968L118.366 17.9375ZM116.208 20.3971C115.305 20.9779 114.178 21.293 112.779 21.293V23.293C114.486 23.293 116.006 22.9049 117.29 22.0795L116.208 20.3971ZM112.779 21.293C111.381 21.293 110.247 20.978 109.332 20.3949L108.258 22.0816C109.55 22.9048 111.072 23.293 112.779 23.293V21.293ZM109.332 20.3949C108.39 19.7944 107.668 18.9806 107.161 17.9316L105.361 18.8027C106.025 20.1757 106.993 21.2759 108.258 22.0816L109.332 20.3949ZM107.162 17.9345C106.649 16.8657 106.382 15.6396 106.382 14.2363H104.382C104.382 15.8994 104.7 17.4273 105.359 18.7999L107.162 17.9345ZM106.382 14.2363V13.9287H104.382V14.2363H106.382ZM108.015 14.2363C108.015 15.2679 108.16 16.2369 108.463 17.1342L110.358 16.4947C110.133 15.8295 110.015 15.0798 110.015 14.2363H108.015ZM108.464 17.1379C108.778 18.0556 109.275 18.8343 109.975 19.4341L111.277 17.9155C110.883 17.5778 110.57 17.1162 110.356 16.491L108.464 17.1379ZM109.982 19.4397C110.754 20.0902 111.716 20.3779 112.779 20.3779V18.3779C112.085 18.3779 111.611 18.1969 111.27 17.9099L109.982 19.4397ZM112.779 20.3779C113.836 20.3779 114.79 20.0887 115.554 19.4341L114.253 17.9155C113.923 18.1984 113.461 18.3779 112.779 18.3779V20.3779ZM115.547 19.4397C116.262 18.838 116.764 18.0537 117.069 17.1271L115.169 16.5018C114.966 17.1182 114.658 17.5741 114.259 17.9099L115.547 19.4397ZM117.067 17.1342C117.369 16.2369 117.515 15.2679 117.515 14.2363H115.515C115.515 15.0798 115.396 15.8295 115.172 16.4947L117.067 17.1342ZM117.515 14.2363V13.9287H115.515V14.2363H117.515ZM117.515 13.9287C117.515 12.9057 117.369 11.9417 117.067 11.0455L115.172 11.685C115.396 12.3512 115.515 13.0963 115.515 13.9287H117.515ZM117.07 11.0561C116.766 10.1208 116.265 9.32935 115.547 8.72532L114.259 10.2551C114.655 10.5886 114.964 11.0472 115.168 11.6743L117.07 11.0561ZM115.555 8.73192C114.783 8.068 113.819 7.77246 112.75 7.77246V9.77246C113.439 9.77246 113.91 9.95544 114.251 10.2486L115.555 8.73192ZM112.75 7.77246C111.688 7.77246 110.73 8.06974 109.959 8.73192L111.263 10.2486C111.606 9.9537 112.074 9.77246 112.75 9.77246V7.77246ZM109.961 8.73098C109.258 9.33299 108.761 10.1188 108.448 11.0455L110.343 11.685C110.558 11.0492 110.871 10.585 111.262 10.2495L109.961 8.73098ZM108.444 11.0561C108.154 11.9492 108.015 12.9094 108.015 13.9287H110.015C110.015 13.0926 110.129 12.3438 110.347 11.6743L108.444 11.0561ZM108.015 13.9287V14.2363H110.015V13.9287H108.015ZM132.599 6.15039V5.15039H131.599V6.15039H132.599ZM136.231 6.15039H137.231V5.15039H136.231V6.15039ZM136.231 22V23H137.231V22H136.231ZM132.804 22L131.805 22.0546L131.857 23H132.804V22ZM132.599 18.25H131.599V18.2773L131.6 18.3046L132.599 18.25ZM134.312 14.9102H135.312V13.8858L134.288 13.9104L134.312 14.9102ZM133.683 18.7188L134.617 19.0744L134.618 19.0717L133.683 18.7188ZM131.72 21.3408L132.301 22.1546L132.307 22.1503L131.72 21.3408ZM123.019 6.15039V5.15039H122.019V6.15039H123.019ZM126.651 6.15039H127.651V5.15039H126.651V6.15039ZM126.988 18.1621L126.102 18.6254L126.108 18.6375L126.115 18.6495L126.988 18.1621ZM131.5 18.748L132.058 19.5779L132.061 19.5758L131.5 18.748ZM133.097 14.9395L133.073 13.9397L132.097 13.9633V14.9395H133.097ZM132.599 7.15039H136.231V5.15039H132.599V7.15039ZM135.231 6.15039V22H137.231V6.15039H135.231ZM136.231 21H132.804V23H136.231V21ZM133.802 21.9454L133.597 18.1954L131.6 18.3046L131.805 22.0546L133.802 21.9454ZM133.599 18.25V6.15039H131.599V18.25H133.599ZM133.312 14.9102C133.312 16.2387 133.117 17.3853 132.747 18.3658L134.618 19.0717C135.088 17.8257 135.312 16.4332 135.312 14.9102H133.312ZM132.748 18.3631C132.392 19.2991 131.852 20.0097 131.133 20.5313L132.307 22.1503C133.365 21.3828 134.134 20.3454 134.617 19.0744L132.748 18.3631ZM131.138 20.5271C130.463 21.0092 129.532 21.293 128.263 21.293V23.293C129.825 23.293 131.199 22.9419 132.301 22.1546L131.138 20.5271ZM128.263 21.293C126.909 21.293 125.907 20.9024 125.157 20.1908L123.78 21.6412C124.964 22.7656 126.491 23.293 128.263 23.293V21.293ZM125.157 20.1908C124.479 19.5464 124.019 18.369 124.019 16.3896H122.019C122.019 18.6095 122.525 20.4497 123.78 21.6412L125.157 20.1908ZM124.019 16.3896V6.15039H122.019V16.3896H124.019ZM123.019 7.15039H126.651V5.15039H123.019V7.15039ZM125.651 6.15039V16.4189H127.651V6.15039H125.651ZM125.651 16.4189C125.651 17.2372 125.774 17.9982 126.102 18.6254L127.875 17.6989C127.753 17.4667 127.651 17.0655 127.651 16.4189H125.651ZM126.115 18.6495C126.437 19.226 126.892 19.6866 127.492 19.9636L128.33 18.1477C128.169 18.0732 128.008 17.9381 127.861 17.6747L126.115 18.6495ZM127.492 19.9636C128.016 20.2056 128.581 20.3193 129.171 20.3193V18.3193C128.843 18.3193 128.568 18.2573 128.33 18.1477L127.492 19.9636ZM129.171 20.3193C130.272 20.3193 131.268 20.1089 132.058 19.5779L130.942 17.9182C130.599 18.149 130.043 18.3193 129.171 18.3193V20.3193ZM132.061 19.5758C132.814 19.0657 133.354 18.3681 133.669 17.5111L131.792 16.8209C131.619 17.2921 131.339 17.6492 130.939 17.9203L132.061 19.5758ZM133.669 17.5111C133.96 16.7204 134.097 15.8591 134.097 14.9395H132.097C132.097 15.6605 131.989 16.2835 131.792 16.8209L133.669 17.5111ZM133.121 15.9392L134.337 15.9099L134.288 13.9104L133.073 13.9397L133.121 15.9392ZM143.438 22V23H144.438V22H143.438ZM139.806 22H138.806V23H139.806V22ZM139.806 6.15039V5.15039H138.806V6.15039H139.806ZM143.263 6.15039L144.261 6.09388L144.208 5.15039H143.263V6.15039ZM143.438 9.25586H144.438V9.22758L144.437 9.19935L143.438 9.25586ZM148.214 9.49023L148.043 10.4754L149.204 10.6774L149.214 9.49874L148.214 9.49023ZM147.496 9.40234L147.416 10.3992L147.419 10.3994L147.496 9.40234ZM144.757 9.8125L145.23 10.6935L145.236 10.6904L144.757 9.8125ZM143.556 11.043L144.443 11.5033L144.447 11.4967L143.556 11.043ZM143.072 12.918L143.09 13.9178L144.008 13.9017L144.07 12.9854L143.072 12.918ZM142.237 12.9326H141.237V13.9503L142.255 13.9325L142.237 12.9326ZM144.347 6.79492L145.011 7.54233L144.347 6.79492ZM148.243 6.04785L149.243 6.05636L149.249 5.36331L148.602 5.11451L148.243 6.04785ZM143.438 21H139.806V23H143.438V21ZM140.806 22V6.15039H138.806V22H140.806ZM139.806 7.15039H143.263V5.15039H139.806V7.15039ZM142.264 6.2069L142.44 9.31237L144.437 9.19935L144.261 6.09388L142.264 6.2069ZM142.438 9.25586V22H144.438V9.25586H142.438ZM148.385 8.50502C148.126 8.45992 147.855 8.42698 147.573 8.40529L147.419 10.3994C147.645 10.4168 147.853 10.4424 148.043 10.4754L148.385 8.50502ZM147.576 8.40553C147.305 8.38388 147.035 8.37305 146.764 8.37305V10.373C146.981 10.373 147.199 10.3817 147.416 10.3992L147.576 8.40553ZM146.764 8.37305C145.846 8.37305 145 8.54055 144.278 8.9346L145.236 10.6904C145.587 10.4985 146.08 10.373 146.764 10.373V8.37305ZM144.284 8.93151C143.575 9.3119 143.03 9.87179 142.665 10.5893L144.447 11.4967C144.628 11.1399 144.884 10.8795 145.23 10.6935L144.284 8.93151ZM142.668 10.5827C142.319 11.2557 142.131 12.0201 142.075 12.8506L144.07 12.9854C144.112 12.3705 144.246 11.8849 144.443 11.5033L142.668 10.5827ZM143.055 11.9181L142.22 11.9328L142.255 13.9325L143.09 13.9178L143.055 11.9181ZM143.237 12.9326C143.237 11.6813 143.402 10.5886 143.714 9.64271L141.815 9.01549C141.424 10.1985 141.237 11.5082 141.237 12.9326H143.237ZM143.714 9.64271C144.021 8.7133 144.463 8.02975 145.011 7.54233L143.682 6.04751C142.824 6.81009 142.211 7.816 141.815 9.01549L143.714 9.64271ZM145.011 7.54233C145.509 7.10002 146.142 6.85742 146.983 6.85742V4.85742C145.716 4.85742 144.591 5.23982 143.682 6.04751L145.011 7.54233ZM146.983 6.85742C147.127 6.85742 147.304 6.87122 147.52 6.90439L147.824 4.92764C147.532 4.88268 147.25 4.85742 146.983 4.85742V6.85742ZM147.52 6.90439C147.754 6.94036 147.859 6.97155 147.884 6.9812L148.602 5.11451C148.373 5.0265 148.098 4.9698 147.824 4.92764L147.52 6.90439ZM147.243 6.03934L147.214 9.48172L149.214 9.49874L149.243 6.05636L147.243 6.03934ZM154.073 22V23H155.073V22H154.073ZM150.426 22H149.426V23H150.426V22ZM150.426 6.15039V5.15039H149.426V6.15039H150.426ZM153.854 6.15039L154.851 6.08267L154.788 5.15039H153.854V6.15039ZM154.073 9.3877H155.073V9.3538L155.071 9.31998L154.073 9.3877ZM152.242 13.5186H151.242V14.5304L152.254 14.5185L152.242 13.5186ZM152.945 9.57812L152.022 9.19461L152.019 9.20133L152.945 9.57812ZM155.069 6.85352L154.491 6.03749L155.069 6.85352ZM162.115 7.16113L162.799 6.43136L162.115 7.16113ZM163.507 22V23H164.507V22H163.507ZM159.874 22H158.874V23H159.874V22ZM159.522 10.0176L158.636 10.4808L158.64 10.4887L158.645 10.4964L159.522 10.0176ZM158.556 9.10938L158.143 10.0205L158.156 10.0263L158.17 10.0318L158.556 9.10938ZM155.406 9.19727L155.869 10.0839L155.876 10.0801L155.406 9.19727ZM153.678 11.6875L152.706 11.4529L152.704 11.4608L152.702 11.4688L153.678 11.6875ZM153.487 13.5039L153.499 14.5038L154.487 14.4922V13.5039H153.487ZM161.573 13.0059L160.573 12.9983L160.564 14.2359L161.776 13.9851L161.573 13.0059ZM164.371 6.83887L164.946 7.6573L164.952 7.65319L164.371 6.83887ZM170.538 6.45801L170.077 7.34564L170.086 7.35016L170.538 6.45801ZM172.325 8.34766L171.425 8.78269L171.427 8.78668L172.325 8.34766ZM172.955 22V23H173.955V22H172.955ZM169.308 22H168.308V23H169.308V22ZM168.956 9.95898L168.07 10.4222L168.076 10.4344L168.083 10.4464L168.956 9.95898ZM167.989 9.08008L167.614 10.007L167.627 10.0124L167.641 10.0173L167.989 9.08008ZM165.104 9.12402L164.674 8.22112L164.665 8.22525L165.104 9.12402ZM164.093 9.94434L163.303 9.33039L163.301 9.33353L164.093 9.94434ZM163.478 11.1602L162.523 10.8619L162.519 10.8747L163.478 11.1602ZM163.272 12.6543L163.475 13.6336L164.272 13.4686V12.6543H163.272ZM154.073 21H150.426V23H154.073V21ZM151.426 22V6.15039H149.426V22H151.426ZM150.426 7.15039H153.854V5.15039H150.426V7.15039ZM152.856 6.21811L153.076 9.45541L155.071 9.31998L154.851 6.08267L152.856 6.21811ZM153.073 9.3877V22H155.073V9.3877H153.073ZM153.242 13.5186C153.242 12.1496 153.46 10.9676 153.872 9.95492L152.019 9.20133C151.493 10.4933 151.242 11.9383 151.242 13.5186H153.242ZM153.869 9.96163C154.282 8.96756 154.877 8.21548 155.647 7.66954L154.491 6.03749C153.387 6.81967 152.566 7.88401 152.022 9.19462L153.869 9.96163ZM155.647 7.66954C156.382 7.14898 157.335 6.85742 158.57 6.85742V4.85742C157.012 4.85742 155.631 5.22992 154.491 6.03749L155.647 7.66954ZM158.57 6.85742C159.787 6.85742 160.713 7.21818 161.432 7.89091L162.799 6.43136C161.662 5.36581 160.224 4.85742 158.57 4.85742V6.85742ZM161.432 7.89091C162.068 8.4875 162.507 9.58058 162.507 11.4385H164.507C164.507 9.33153 164.018 7.57304 162.799 6.43136L161.432 7.89091ZM162.507 11.4385V22H164.507V11.4385H162.507ZM163.507 21H159.874V23H163.507V21ZM160.874 22V11.7754H158.874V22H160.874ZM160.874 11.7754C160.874 10.9452 160.746 10.172 160.4 9.53873L158.645 10.4964C158.768 10.7226 158.874 11.1212 158.874 11.7754H160.874ZM160.409 9.55432C160.084 8.93245 159.592 8.4589 158.942 8.18693L158.17 10.0318C158.36 10.1114 158.512 10.2433 158.636 10.4808L160.409 9.55432ZM158.968 8.19827C158.397 7.94017 157.756 7.83105 157.076 7.83105V9.83105C157.549 9.83105 157.894 9.90749 158.143 10.0205L158.968 8.19827ZM157.076 7.83105C156.3 7.83105 155.573 7.97598 154.937 8.31439L155.876 10.0801C156.158 9.93027 156.544 9.83105 157.076 9.83105V7.83105ZM154.944 8.31068C154.341 8.62496 153.848 9.07377 153.473 9.64305L155.143 10.7437C155.334 10.4536 155.573 10.2383 155.869 10.0839L154.944 8.31068ZM153.473 9.64305C153.118 10.1811 152.866 10.7888 152.706 11.4529L154.65 11.9221C154.763 11.4534 154.931 11.065 155.143 10.7437L153.473 9.64305ZM152.702 11.4688C152.557 12.1144 152.487 12.7938 152.487 13.5039H154.487C154.487 12.925 154.544 12.3934 154.654 11.9062L152.702 11.4688ZM153.476 12.504L152.23 12.5186L152.254 14.5185L153.499 14.5038L153.476 12.504ZM162.573 13.0134C162.582 11.8351 162.798 10.7778 163.209 9.82855L161.373 9.03473C160.846 10.2535 160.584 11.579 160.573 12.9983L162.573 13.0134ZM163.209 9.82855C163.608 8.90469 164.187 8.18998 164.946 7.65728L163.796 6.02045C162.719 6.77682 161.911 7.79062 161.373 9.03473L163.209 9.82855ZM164.952 7.65319C165.669 7.14177 166.588 6.85742 167.77 6.85742V4.85742C166.255 4.85742 164.909 5.22737 163.791 6.02455L164.952 7.65319ZM167.77 6.85742C168.721 6.85742 169.478 7.03447 170.077 7.34559L170.999 5.57042C170.055 5.08076 168.967 4.85742 167.77 4.85742V6.85742ZM170.086 7.35016C170.64 7.63025 171.089 8.08682 171.425 8.78269L173.226 7.91262C172.722 6.87021 171.98 6.06701 170.99 5.56585L170.086 7.35016ZM171.427 8.78668C171.755 9.4589 171.955 10.4334 171.955 11.7754H173.955C173.955 10.2659 173.735 8.95516 173.224 7.90863L171.427 8.78668ZM171.955 11.7754V22H173.955V11.7754H171.955ZM172.955 21H169.308V23H172.955V21ZM170.308 22V11.7461H168.308V22H170.308ZM170.308 11.7461C170.308 10.8966 170.183 10.1046 169.829 9.47162L168.083 10.4464C168.198 10.6532 168.308 11.0526 168.308 11.7461H170.308ZM169.842 9.49573C169.513 8.86662 169.009 8.39266 168.338 8.14286L167.641 10.0173C167.809 10.08 167.949 10.192 168.07 10.4222L169.842 9.49573ZM168.364 8.15313C167.807 7.92743 167.185 7.83105 166.524 7.83105V9.83105C166.997 9.83105 167.351 9.9007 167.614 10.007L168.364 8.15313ZM166.524 7.83105C165.865 7.83105 165.24 7.95127 164.674 8.22116L165.533 10.0269C165.787 9.90615 166.109 9.83105 166.524 9.83105V7.83105ZM164.665 8.22525C164.128 8.48747 163.671 8.85832 163.303 9.3304L164.882 10.5583C165.062 10.3272 165.279 10.1512 165.542 10.0228L164.665 8.22525ZM163.301 9.33353C162.956 9.78102 162.7 10.2955 162.523 10.8619L164.432 11.4584C164.548 11.0873 164.702 10.7912 164.885 10.5551L163.301 9.33353ZM162.519 10.8747C162.352 11.4368 162.272 12.0321 162.272 12.6543H164.272C164.272 12.2023 164.33 11.8015 164.436 11.4456L162.519 10.8747ZM163.07 11.675L161.371 12.0266L161.776 13.9851L163.475 13.6336L163.07 11.675ZM179.488 21.2822L178.975 22.1404L178.98 22.1436L179.488 21.2822ZM176.852 18.5283L175.968 18.9962L175.969 18.9993L176.852 18.5283ZM176.866 9.72461L177.756 10.1804L177.758 10.1775L176.866 9.72461ZM179.43 6.86816L178.905 6.01676L178.902 6.01888L179.43 6.86816ZM186.93 6.85352L186.379 7.68807L186.384 7.69177L186.93 6.85352ZM189.186 9.59277L188.265 9.98392L188.266 9.98669L189.186 9.59277ZM189.933 15.2031V16.2031H190.933V15.2031H189.933ZM177.672 15.2031H176.672V16.2031H177.672V15.2031ZM177.672 12.5811V11.5811H176.672V12.5811H177.672ZM186.344 12.5811V13.5811H187.344V12.5811H186.344ZM186.344 12.3027H187.344V12.2869L187.343 12.271L186.344 12.3027ZM184.967 9.27051L184.381 10.0808L184.389 10.0865L184.967 9.27051ZM181.173 9.43164L181.805 10.2069L181.813 10.1999L181.173 9.43164ZM179.972 11.2627L180.916 11.593L180.917 11.5894L179.972 11.2627ZM181.51 18.748L180.958 19.5821L180.967 19.588L181.51 18.748ZM186.036 18.8652L185.589 17.9708L185.584 17.9735L186.036 18.8652ZM187.75 17.4297L188.457 16.7226L187.65 15.9154L186.956 16.8218L187.75 17.4297ZM189.654 19.334L190.488 19.8862L190.939 19.2048L190.361 18.6269L189.654 19.334ZM187.398 21.3848L187.918 22.2393L187.92 22.2378L187.398 21.3848ZM183.561 21.293C182.134 21.293 180.959 20.9884 179.996 20.4209L178.98 22.1436C180.303 22.9237 181.843 23.293 183.561 23.293V21.293ZM180.002 20.4241C179.012 19.8318 178.262 19.0463 177.734 18.0573L175.969 18.9993C176.672 20.315 177.68 21.3655 178.975 22.1404L180.002 20.4241ZM177.735 18.0604C177.203 17.0554 176.929 15.9196 176.929 14.6318H174.929C174.929 16.2152 175.269 17.677 175.968 18.9962L177.735 18.0604ZM176.929 14.6318V14.0312H174.929V14.6318H176.929ZM176.929 14.0312C176.929 12.5074 177.217 11.2341 177.756 10.1803L175.976 9.26887C175.266 10.6566 174.929 12.2543 174.929 14.0312H176.929ZM177.758 10.1775C178.307 9.09616 179.041 8.28702 179.958 7.71745L178.902 6.01888C177.65 6.79697 176.675 7.89212 175.975 9.27174L177.758 10.1775ZM179.954 7.71956C180.879 7.14991 181.93 6.85742 183.136 6.85742V4.85742C181.587 4.85742 180.168 5.23876 178.905 6.01677L179.954 7.71956ZM183.136 6.85742C184.515 6.85742 185.575 7.15719 186.379 7.68805L187.481 6.01898C186.273 5.22171 184.804 4.85742 183.136 4.85742V6.85742ZM186.384 7.69177C187.213 8.23086 187.84 8.98327 188.265 9.98391L190.106 9.20163C189.535 7.85853 188.658 6.78476 187.475 6.01526L186.384 7.69177ZM188.266 9.98669C188.701 11.0008 188.933 12.2098 188.933 13.6357H190.933C190.933 11.9952 190.666 10.5089 190.105 9.19885L188.266 9.98669ZM188.933 13.6357V15.2031H190.933V13.6357H188.933ZM189.933 14.2031H177.672V16.2031H189.933V14.2031ZM178.672 15.2031V12.5811H176.672V15.2031H178.672ZM177.672 13.5811H186.344V11.5811H177.672V13.5811ZM187.344 12.5811V12.3027H185.344V12.5811H187.344ZM187.343 12.271C187.32 11.5468 187.182 10.8549 186.921 10.2028L185.064 10.9456C185.233 11.3677 185.328 11.8282 185.344 12.3345L187.343 12.271ZM186.921 10.2028C186.635 9.48818 186.172 8.8987 185.545 8.45448L184.389 10.0865C184.699 10.3064 184.92 10.586 185.064 10.9456L186.921 10.2028ZM185.553 8.46028C184.871 7.9673 184.028 7.77246 183.121 7.77246V9.77246C183.757 9.77246 184.144 9.90965 184.381 10.0807L185.553 8.46028ZM183.121 7.77246C182.146 7.77246 181.262 8.0556 180.533 8.66342L181.813 10.1999C182.138 9.92878 182.553 9.77246 183.121 9.77246V7.77246ZM180.541 8.65641C179.84 9.22794 179.347 10.0097 179.027 10.936L180.917 11.5894C181.143 10.9337 181.451 10.4947 181.805 10.2069L180.541 8.65641ZM179.028 10.9323C178.708 11.8452 178.562 12.8849 178.562 14.0312H180.562C180.562 13.0487 180.688 12.2427 180.916 11.593L179.028 10.9323ZM178.562 14.0312V14.6318H180.562V14.0312H178.562ZM178.562 14.6318C178.562 15.6554 178.751 16.6083 179.153 17.471L180.966 16.6266C180.704 16.0636 180.562 15.4052 180.562 14.6318H178.562ZM179.153 17.471C179.56 18.3455 180.164 19.0568 180.958 19.5821L182.062 17.914C181.586 17.5995 181.223 17.178 180.966 16.6266L179.153 17.471ZM180.967 19.588C181.789 20.1187 182.741 20.3633 183.78 20.3633V18.3633C183.062 18.3633 182.501 18.1977 182.052 17.9081L180.967 19.588ZM183.78 20.3633C184.762 20.3633 185.674 20.1706 186.489 19.757L185.584 17.9735C185.09 18.2239 184.498 18.3633 183.78 18.3633V20.3633ZM186.483 19.7597C187.291 19.3556 187.979 18.7758 188.544 18.0376L186.956 16.8218C186.564 17.3336 186.109 17.7108 185.589 17.9708L186.483 19.7597ZM187.043 18.1368L188.947 20.0411L190.361 18.6269L188.457 16.7226L187.043 18.1368ZM188.821 18.7818C188.424 19.3804 187.795 19.9703 186.877 20.5317L187.92 22.2378C189.014 21.5688 189.888 20.7914 190.488 19.8862L188.821 18.7818ZM186.879 20.5302C186.084 21.0134 185 21.293 183.561 21.293V23.293C185.246 23.293 186.721 22.9671 187.918 22.2393L186.879 20.5302ZM199.996 8.83105V9.83105H200.996V8.83105H199.996ZM191.002 8.83105H190.002V9.83105H191.002V8.83105ZM191.002 6.15039V5.15039H190.002V6.15039H191.002ZM199.996 6.15039H200.996V5.15039H199.996V6.15039ZM197.184 2.26855H198.184V1.26855H197.184V2.26855ZM197.389 18.6455L196.508 19.1196L196.512 19.1269L196.516 19.1341L197.389 18.6455ZM200.099 19.1436H201.099V17.9066L199.889 18.1658L200.099 19.1436ZM200.099 21.9414L200.415 22.8901L201.099 22.6622V21.9414H200.099ZM199.073 22.1904L198.901 21.2054L198.897 21.2062L199.073 22.1904ZM195.558 21.8535L195.133 22.759L195.139 22.7615L195.558 21.8535ZM194.078 20.4326L193.194 20.9005L193.198 20.9083L193.203 20.916L194.078 20.4326ZM193.551 2.26855V1.26855H192.551V2.26855H193.551ZM199.996 7.83105H191.002V9.83105H199.996V7.83105ZM192.002 8.83105V6.15039H190.002V8.83105H192.002ZM191.002 7.15039H199.996V5.15039H191.002V7.15039ZM198.996 6.15039V8.83105H200.996V6.15039H198.996ZM196.184 2.26855V17.5322H198.184V2.26855H196.184ZM196.184 17.5322C196.184 18.0855 196.256 18.6517 196.508 19.1196L198.269 18.1714C198.248 18.1315 198.184 17.9555 198.184 17.5322H196.184ZM196.516 19.1341C196.767 19.5824 197.152 19.9169 197.647 20.0885L198.302 18.1986C198.293 18.1956 198.289 18.1932 198.287 18.1924C198.286 18.1917 198.286 18.1914 198.285 18.1912C198.285 18.191 198.283 18.1893 198.279 18.1848C198.276 18.1801 198.269 18.1714 198.261 18.1569L196.516 19.1341ZM197.647 20.0885C198.028 20.2203 198.435 20.2754 198.854 20.2754V18.2754C198.608 18.2754 198.429 18.2426 198.302 18.1986L197.647 20.0885ZM198.854 20.2754C199.138 20.2754 199.415 20.2583 199.686 20.223L199.427 18.2398C199.249 18.2631 199.058 18.2754 198.854 18.2754V20.2754ZM199.686 20.223C199.923 20.1921 200.134 20.1587 200.308 20.1214L199.889 18.1658C199.79 18.187 199.639 18.2122 199.427 18.2398L199.686 20.223ZM199.099 19.1436V21.9414H201.099V19.1436H199.099ZM199.782 20.9927C199.547 21.071 199.256 21.1433 198.901 21.2054L199.246 23.1755C199.672 23.1008 200.064 23.0071 200.415 22.8901L199.782 20.9927ZM198.897 21.2062C198.59 21.2612 198.202 21.293 197.726 21.293V23.293C198.284 23.293 198.795 23.2563 199.25 23.1747L198.897 21.2062ZM197.726 21.293C197.037 21.293 196.461 21.169 195.977 20.9456L195.139 22.7615C195.924 23.124 196.793 23.293 197.726 23.293V21.293ZM195.982 20.9481C195.564 20.7522 195.222 20.4349 194.954 19.9492L193.203 20.916C193.657 21.7389 194.301 22.3689 195.133 22.759L195.982 20.9481ZM194.962 19.9647C194.714 19.4955 194.551 18.7957 194.551 17.7959H192.551C192.551 18.9836 192.74 20.0416 193.194 20.9005L194.962 19.9647ZM194.551 17.7959V2.26855H192.551V17.7959H194.551ZM193.551 3.26855H197.184V1.26855H193.551V3.26855Z" fill="black" mask="url(#path-1-outside-1_0_1)"/>
</g>
<defs>
<filter id="filter0_d_0_1" x="0.263672" y="0.378906" width="203.835" height="29.9141" filterUnits="userSpaceOnUse" color-interpolation-filters="sRGB">
<feFlood flood-opacity="0" result="BackgroundImageFix"/>
<feColorMatrix in="SourceAlpha" type="matrix" values="0 0 0 0 0 0 0 0 0 0 0 0 0 0 0 0 0 0 127 0" result="hardAlpha"/>
<feOffset dy="4"/>
<feGaussianBlur stdDeviation="2"/>
<feComposite in2="hardAlpha" operator="out"/>
<feColorMatrix type="matrix" values="0 0 0 0 0 0 0 0 0 0 0 0 0 0 0 0 0 0 0.25 0"/>
<feBlend mode="normal" in2="BackgroundImageFix" result="effect1_dropShadow_0_1"/>
<feBlend mode="normal" in="SourceGraphic" in2="effect1_dropShadow_0_1" result="shape"/>
</filter>
</defs>
</svg>
