<svg width="149" height="47" viewBox="0 0 149 47" fill="none" xmlns="http://www.w3.org/2000/svg">
<path d="M32.0469 0.289062L31.8906 16.2656L27.2422 3.96094L17.0859 4.89844L16.8516 15.0156L20.2109 14.7812L24.2344 7.63281L23.8828 25.9141L19.9375 19.1172L16.7734 18.8828L16.6172 27.5547L25.25 31.2266L2.04688 31.1484C3.42708 30.5495 4.80729 29.9375 6.1875 29.3125C7.56771 28.6875 8.97396 28.1016 10.4062 27.5547L9.78125 5.875C8.27083 5.43229 6.77344 4.9375 5.28906 4.39062C3.80469 3.84375 2.30729 3.3099 0.796875 2.78906C6.03125 2.3724 11.2396 1.94271 16.4219 1.5C21.6042 1.05729 26.8125 0.653646 32.0469 0.289062ZM57.5156 9.9375C57.5156 11.0052 57.1901 11.8906 56.5391 12.5938C55.888 13.2708 55.0156 13.6094 53.9219 13.6094C53.1146 13.6094 52.4896 13.4661 52.0469 13.1797C51.6042 12.8672 51.2266 12.5286 50.9141 12.1641C50.6276 11.7734 50.3281 11.4349 50.0156 11.1484C49.7292 10.8359 49.3125 10.6797 48.7656 10.6797C47.8021 10.6797 47.0339 10.9922 46.4609 11.6172C45.888 12.2161 45.4583 12.9323 45.1719 13.7656C45.1458 13.8177 45.1198 14.0651 45.0938 14.5078C45.0938 14.9505 45.0807 15.5104 45.0547 16.1875C45.0286 16.8646 45.0026 17.6068 44.9766 18.4141C44.9505 19.2214 44.9245 19.9896 44.8984 20.7188C44.8724 21.4479 44.8464 22.099 44.8203 22.6719C44.7943 23.2188 44.7812 23.5833 44.7812 23.7656L54.2734 27.2031L31.6953 29.5078C33.0495 28.6484 34.4036 27.8021 35.7578 26.9688C37.112 26.1094 38.4661 25.263 39.8203 24.4297L38.375 10.7969L29.6641 8.45312L45.4062 5.01562L45.3281 8.60938C46.4219 7.85417 47.5417 7.21615 48.6875 6.69531C49.8594 6.14844 51.1484 5.875 52.5547 5.875C53.0234 5.875 53.5052 5.92708 54 6.03125C54.4948 6.13542 54.9635 6.29167 55.4062 6.5C55.849 6.70833 56.2396 6.99479 56.5781 7.35938C56.9167 7.69792 57.1641 8.11458 57.3203 8.60938C57.4505 9.07812 57.5156 9.52083 57.5156 9.9375ZM77.2812 21.8906C77.2812 22.0729 77.2682 22.2552 77.2422 22.4375C77.2422 22.6198 77.2422 22.8021 77.2422 22.9844L61.3438 23.2969C61.6823 24.8333 62.4505 25.9661 63.6484 26.6953C64.8464 27.4245 66.2005 27.7891 67.7109 27.7891C68.4401 27.7891 69.1823 27.737 69.9375 27.6328C70.6927 27.5286 71.4349 27.3594 72.1641 27.125C72.8932 26.8906 73.5833 26.5911 74.2344 26.2266C74.8854 25.8359 75.4714 25.3802 75.9922 24.8594C75.7057 25.9531 75.224 26.9167 74.5469 27.75C73.8698 28.5833 73.0625 29.2734 72.125 29.8203C71.2135 30.3672 70.2109 30.7708 69.1172 31.0312C68.0495 31.3177 66.9818 31.4609 65.9141 31.4609C64.4557 31.4609 63.0625 31.2005 61.7344 30.6797C60.4323 30.1589 59.2865 29.4427 58.2969 28.5312C57.3333 27.6198 56.5651 26.526 55.9922 25.25C55.4193 23.974 55.1328 22.5807 55.1328 21.0703C55.1328 19.4818 55.4583 18.0365 56.1094 16.7344C56.7604 15.4323 57.6198 14.3255 58.6875 13.4141C59.7552 12.4766 60.9922 11.7604 62.3984 11.2656C63.8047 10.7708 65.276 10.5234 66.8125 10.5234C68.4271 10.5234 69.8724 10.8229 71.1484 11.4219C72.4505 12.0208 73.5573 12.8411 74.4688 13.8828C75.3802 14.9245 76.0703 16.1354 76.5391 17.5156C77.0339 18.8698 77.2812 20.3281 77.2812 21.8906ZM71.3047 19.8984C71.2526 19.1953 71.1094 18.5182 70.875 17.8672C70.6406 17.2161 70.3151 16.6432 69.8984 16.1484C69.4818 15.6536 68.974 15.263 68.375 14.9766C67.8021 14.6641 67.125 14.5078 66.3438 14.5078C65.5625 14.5078 64.8854 14.651 64.3125 14.9375C63.7396 15.224 63.2578 15.6146 62.8672 16.1094C62.4766 16.5781 62.151 17.138 61.8906 17.7891C61.6562 18.4141 61.474 19.0651 61.3438 19.7422L71.3047 19.8984ZM105.016 26.4219L88.0625 26.5391L95.3672 23.7266V16.6953C95.3672 15.3151 95.0156 14.2214 94.3125 13.4141C93.6354 12.5807 92.5938 12.1641 91.1875 12.1641C90.4844 12.1641 89.7292 12.2812 88.9219 12.5156C88.1406 12.75 87.5547 13.1927 87.1641 13.8438L86.3047 21.4219C86.5651 21.6302 86.9688 21.8906 87.5156 22.2031C88.0885 22.5156 88.6745 22.8281 89.2734 23.1406C89.9505 23.5052 90.6797 23.8828 91.4609 24.2734L75.4062 24.3516L81.9688 21.6562L80.7969 12.2422C80.0417 12.0339 79.1693 11.7995 78.1797 11.5391C77.1901 11.2526 76.2396 10.9661 75.3281 10.6797C74.2865 10.3672 73.2057 10.0417 72.0859 9.70312L87.5938 7.125L87.3984 9.50781C88.3099 9.14323 89.2865 8.77865 90.3281 8.41406C91.3698 8.04948 92.3854 7.86719 93.375 7.86719C95.7448 7.86719 97.5807 8.50521 98.8828 9.78125C100.185 11.0573 100.836 12.8932 100.836 15.2891C100.836 15.888 100.797 16.5651 100.719 17.3203C100.667 18.0495 100.589 18.7917 100.484 19.5469C100.38 20.3021 100.263 21.0573 100.133 21.8125C100.029 22.5417 99.9245 23.2188 99.8203 23.8438L105.016 26.4219ZM125.406 8.0625L112.672 25.2891L118.727 25.9141L122.516 17.4375L123.18 29.7422L102.203 28.2969L115.445 11.6953L107.438 11.9688L104.742 20.7578L102.359 8.64844L125.406 8.0625ZM148.805 10.5625L147.828 33.8438C147.75 35.7969 147.438 37.5807 146.891 39.1953C146.344 40.8099 145.549 42.1901 144.508 43.3359C143.492 44.5078 142.203 45.4062 140.641 46.0312C139.104 46.6562 137.307 46.9688 135.25 46.9688C134.104 46.9688 132.945 46.7995 131.773 46.4609C130.602 46.1224 129.534 45.6146 128.57 44.9375C127.633 44.2865 126.865 43.4792 126.266 42.5156C125.667 41.5521 125.367 40.4323 125.367 39.1562C125.367 38.1667 125.68 37.3464 126.305 36.6953C126.93 36.0703 127.737 35.7578 128.727 35.7578C129.56 35.7578 130.263 36.0703 130.836 36.6953C131.409 37.3203 131.695 38.0365 131.695 38.8438C131.695 39.3646 131.526 39.8464 131.188 40.2891C130.875 40.7318 130.497 41.0573 130.055 41.2656C130.628 42.0208 131.37 42.5938 132.281 42.9844C133.193 43.375 134.104 43.5703 135.016 43.5703C136.37 43.5703 137.451 43.2318 138.258 42.5547C139.091 41.8776 139.729 41.0312 140.172 40.0156C140.615 39 140.914 37.8932 141.07 36.6953C141.253 35.5234 141.383 34.4167 141.461 33.375C141.513 32.3073 141.539 31.2526 141.539 30.2109C141.565 29.1953 141.604 28.1667 141.656 27.125C140.432 27.4375 139.286 27.7109 138.219 27.9453C137.177 28.1536 136.031 28.2578 134.781 28.2578C133.505 28.2578 132.281 28.1146 131.109 27.8281C129.964 27.5417 128.948 27.0859 128.062 26.4609C127.203 25.8359 126.513 25.0286 125.992 24.0391C125.471 23.0495 125.211 21.8516 125.211 20.4453C125.211 20.0547 125.276 19.5339 125.406 18.8828C125.562 18.2057 125.732 17.5156 125.914 16.8125C126.122 16.1094 126.331 15.4323 126.539 14.7812C126.747 14.1302 126.904 13.6354 127.008 13.2969L121.422 7.125L134.82 11.7344C134.664 12.1771 134.443 12.8151 134.156 13.6484C133.896 14.4818 133.622 15.3542 133.336 16.2656C133.049 17.151 132.802 18.0104 132.594 18.8438C132.385 19.651 132.281 20.25 132.281 20.6406C132.281 21.2917 132.438 21.8516 132.75 22.3203C133.062 22.7891 133.453 23.1797 133.922 23.4922C134.417 23.8047 134.951 24.0391 135.523 24.1953C136.122 24.3255 136.708 24.3906 137.281 24.3906C137.958 24.3906 138.714 24.3255 139.547 24.1953C140.406 24.0651 141.161 23.8568 141.812 23.5703L141.891 13.8438L134.469 9.03906L148.805 10.5625Z" fill="black"/>
</svg>
